<svg width="522" height="258" xmlns="http://www.w3.org/2000/svg" xmlns:xlink="http://www.w3.org/1999/xlink" overflow="hidden"><defs><clipPath id="clip0"><rect x="-213" y="395" width="522" height="258"/></clipPath></defs><g clip-path="url(#clip0)" transform="translate(213 -395)"><path d="M603.826 301.305 603.826 301.325C603.826 301.325 603.816 301.295 603.816 301.295L603.826 301.295Z" fill="#FFFFFF" transform="matrix(1.00263 0 0 1 -340.416 230.096)"/><path d="M644.023 294.207C643.704 294.516 643.385 294.835 643.036 295.144 642.208 295.932 641.371 296.739 640.514 297.507 639.626 298.334 638.709 299.142 637.792 299.959 637.074 300.577 636.346 301.205 635.609 301.823 631.82 305.034 627.793 308.164 623.556 311.215 622.459 312.012 621.333 312.79 620.216 313.577L619.977 313.737C619.598 313.986 619.239 314.245 618.86 314.505 617.893 315.153 616.926 315.811 615.939 316.458 615.162 316.977 614.374 317.465 613.566 317.974L613.188 318.223C613.138 318.263 613.088 318.303 613.008 318.323 612.739 318.512 612.48 318.672 612.221 318.841 611.931 319.031 611.632 319.22 611.323 319.409L611.323 319.409C611.124 319.529 610.945 319.649 610.755 319.768 610.576 319.888 610.396 319.988 610.237 320.097 610.157 320.147 610.057 320.207 609.977 320.247 609.718 320.416 609.449 320.576 609.17 320.735L609.17 320.755 609.15 320.755C609.12 320.616 609.1 320.496 609.07 320.376 608.801 319.28 608.512 318.133 608.223 316.997L608.033 316.299C607.595 314.624 607.156 312.939 606.698 311.274L606.698 311.254C606.239 309.59 605.77 307.935 605.302 306.28L605.302 306.28C605.302 306.28 605.292 306.27 605.292 306.27L605.292 306.27C604.803 304.605 604.325 302.97 603.836 301.325L603.836 301.305 603.826 301.305C603.328 299.66 602.809 298.025 602.311 296.4 602.072 295.662 601.842 294.945 601.603 294.197 601.374 293.479 601.135 292.741 600.875 291.994 600.676 291.385 600.477 290.777 600.257 290.169 599.988 289.352 599.709 288.564 599.44 287.767 598.732 285.723 598.014 283.699 597.266 281.675 594.864 275.105 592.282 268.735 589.56 262.584 588.384 261.936 587.217 261.308 586.051 260.69 585.124 260.191 584.207 259.703 583.269 259.224 583.03 259.105 582.781 258.955 582.532 258.835 573.689 254.269 564.766 250.122 556.023 246.533 552.324 245.018 548.616 243.572 544.967 242.226 545.216 242.157 545.475 242.087 545.745 242.007 546.742 241.698 547.758 241.389 548.775 241.11 550.061 240.721 551.367 240.342 552.663 239.983 554.388 240.651 556.133 241.349 557.857 242.057 564.906 244.948 572.054 248.198 579.202 251.747 581.305 252.784 583.409 253.851 585.513 254.947 592.651 258.656 599.809 262.684 606.847 266.951 608.053 261.996 609.09 257.091 609.928 252.256 610.007 251.867 610.067 251.478 610.127 251.099 610.326 249.913 610.516 248.726 610.695 247.55 610.815 246.822 610.915 246.104 611.014 245.387 611.104 244.749 611.184 244.121 611.273 243.493 611.423 242.216 611.583 240.97 611.712 239.724 611.832 238.757 611.911 237.8 612.011 236.853 612.071 236.075 612.151 235.318 612.211 234.56 612.25 234.091 612.28 233.593 612.31 233.124 612.39 232.177 612.45 231.23 612.5 230.303 612.579 228.907 612.639 227.532 612.679 226.166 612.699 225.418 612.729 224.67 612.739 223.933L612.739 223.504C600.556 221.52 588.125 220.005 575.723 219.018 571.735 218.699 568.076 218.449 564.677 218.25L564.657 218.25C564.048 217.413 563.44 216.565 562.842 215.748 562.443 215.219 562.055 214.691 561.646 214.153 561.427 213.844 561.187 213.534 560.958 213.245 560.38 212.458 559.802 211.7 559.193 210.942 558.545 210.115 557.887 209.278 557.229 208.47 556.661 207.762 556.093 207.064 555.515 206.376 554.767 205.469 554.009 204.572 553.242 203.675 552.604 202.927 551.926 202.179 551.258 201.442 550.969 201.113 550.699 200.784 550.4 200.465 556.402 204.512 562.433 208.929 568.415 213.644 569.781 213.734 571.197 213.834 572.652 213.943 573.789 214.013 574.945 214.103 576.131 214.202 576.371 214.222 576.61 214.242 576.859 214.262 588.872 215.249 600.945 216.695 612.759 218.629 613.227 218.709 613.706 218.788 614.175 218.868 614.633 218.938 615.112 219.018 615.58 219.087L617.604 219.436C617.973 219.486 618.352 219.546 618.711 219.616L620.296 219.895 620.655 221.48C623.616 234.839 625.719 249.205 626.856 264.209 626.686 264 626.527 263.82 626.357 263.621 625.639 262.753 624.912 261.916 624.174 261.069 623.287 260.002 622.379 258.945 621.482 257.918 620.525 248.068 619.139 238.528 617.385 229.446 617.355 230.054 617.325 230.642 617.265 231.24 617.245 231.958 617.205 232.636 617.145 233.354 617.066 234.351 616.996 235.377 616.886 236.394 616.767 237.77 616.637 239.176 616.477 240.571 616.318 242.097 616.109 243.652 615.899 245.197 615.889 245.307 615.889 245.427 615.859 245.536 615.64 247.151 615.411 248.766 615.132 250.391 615.122 250.501 615.112 250.621 615.082 250.74 615.022 251.119 614.952 251.528 614.892 251.907 614.793 252.525 614.683 253.143 614.563 253.761 614.394 254.758 614.214 255.755 614.015 256.762 613.955 257.051 613.895 257.33 613.846 257.649 613.905 257.36 613.965 257.071 614.025 256.782 614.922 257.779 615.82 258.766 616.697 259.792 618.691 262.046 620.695 264.368 622.669 266.711 622.898 266.98 623.117 267.25 623.336 267.519 624.244 268.585 625.121 269.652 626.008 270.729 626.906 271.816 627.783 272.902 628.67 273.999 630.425 276.182 632.179 278.405 633.894 280.619 634.761 281.735 635.619 282.852 636.486 283.978 637.343 285.095 638.181 286.241 639.028 287.358 640.723 289.621 642.378 291.894 644.023 294.197L644.023 294.197Z" fill="#FFFFFF" transform="matrix(1.00263 0 0 1 -340.416 230.096)"/><path d="M603.816 301.295 603.826 301.295 603.826 301.325C603.826 301.325 603.816 301.295 603.816 301.295Z" fill="#FFFFFF" transform="matrix(1.00263 0 0 1 -340.416 230.096)"/><path d="M614.015 256.782C613.955 257.071 613.895 257.36 613.836 257.649 613.885 257.33 613.945 257.051 614.005 256.762L614.005 256.782Z" fill="#FFFFFF" transform="matrix(1.00263 0 0 1 -340.416 230.096)"/><path d="M614.015 256.782C613.955 257.071 613.895 257.36 613.836 257.649 613.885 257.33 613.945 257.051 614.005 256.762L614.005 256.782Z" fill="#FFFFFF" transform="matrix(1.00263 0 0 1 -340.416 230.096)"/><path d="M564.696 218.32C564.696 218.32 564.657 218.27 564.647 218.26L564.647 218.26C564.647 218.26 564.667 218.25 564.667 218.25 564.667 218.28 564.686 218.3 564.696 218.32Z" fill="#FFFFFF" transform="matrix(1.00263 0 0 1 -340.416 230.096)"/><path d="M567.498 231.17C559.662 233.015 551.866 235.108 544.319 237.391 543.163 237.74 542.026 238.089 540.87 238.448 539.733 238.797 538.587 239.166 537.46 239.545 527.86 242.645 518.578 246.114 509.725 249.893 509.077 251.049 508.439 252.186 507.821 253.332 507.313 254.249 506.814 255.177 506.316 256.104 506.186 256.333 506.066 256.582 505.947 256.822 499.367 269.144 493.684 281.526 489.039 293.649 488.969 293.399 488.879 293.13 488.809 292.891 488.5 291.884 488.191 290.867 487.932 289.86 487.543 288.614 487.184 287.358 486.845 286.112 490.345 277.488 494.352 268.755 498.809 260.042 499.875 257.968 500.962 255.884 502.069 253.811 505.787 246.872 509.795 239.904 514.032 233.055 507.941 231.689 501.8 230.562 495.718 229.745 493.395 229.426 491.112 229.157 488.829 228.937 487.693 228.818 486.556 228.728 485.43 228.628 484.702 228.568 483.964 228.518 483.237 228.469 481.731 228.359 480.226 228.289 478.73 228.219 477.723 228.17 476.727 228.13 475.74 228.12 474.852 228.09 473.965 228.07 473.088 228.08 472.43 228.06 471.772 228.06 471.114 228.07 470.396 228.07 469.688 228.07 468.98 228.09L468.98 228.09C467.066 239.415 465.561 250.98 464.524 262.564 464.424 263.671 464.335 264.737 464.245 265.814 463.976 268.994 463.746 272.045 463.567 275.006 462.7 275.594 461.862 276.182 461.045 276.78 460.506 277.159 459.978 277.528 459.45 277.917 459.141 278.136 458.812 278.375 458.522 278.605 458.522 278.605 454.255 281.795 452.232 283.41 451.075 284.337 449.929 285.274 448.802 286.211 447.327 287.438 445.911 288.664 444.525 289.9 444.137 290.229 443.768 290.568 443.399 290.897 448.134 283.869 453.378 276.82 459.071 269.782 459.19 268.406 459.3 267.01 459.42 265.585L459.42 265.565C459.519 264.438 459.619 263.292 459.729 262.125 459.759 261.866 459.779 261.627 459.789 261.358 460.815 250.242 462.241 239.116 464.085 228.229 464.235 227.262 464.404 226.275 464.564 225.318 464.634 224.959 464.693 224.61 464.763 224.252 464.823 223.962 464.883 223.673 464.933 223.384L464.933 223.364 465.212 221.849 466.727 221.46C479.249 218.41 492.767 216.097 506.894 214.671 506.714 214.831 506.515 214.98 506.336 215.14 505.428 215.917 504.521 216.675 503.634 217.442 502.557 218.38 501.471 219.317 500.404 220.254 493.475 221.111 486.726 222.178 480.216 223.454 480.256 223.444 480.316 223.454 480.365 223.454 481.223 223.494 482.09 223.564 482.967 223.614 485.131 223.753 487.314 223.933 489.507 224.162 490.913 224.301 496.017 224.92 496.386 224.969 497.044 225.069 497.712 225.149 498.38 225.268 499.417 225.398 500.444 225.548 501.481 225.727 501.63 225.607 501.76 225.488 501.899 225.368 502.178 225.129 502.458 224.88 502.747 224.63 504.9 222.706 507.153 220.772 509.446 218.838 519.007 210.753 528.996 203.027 539.165 195.799 540.092 196.706 541.039 197.613 541.956 198.56 542.554 199.149 543.123 199.757 543.701 200.345 546.243 202.997 548.755 205.798 551.198 208.709 551.896 209.567 552.614 210.424 553.311 211.291 554.817 213.156 556.322 215.08 557.798 217.044 561.157 221.52 564.417 226.265 567.508 231.17Z" fill="#FFFFFF" transform="matrix(1.00263 0 0 1 -340.416 230.096)"/><path d="M532.615 389.933C534.38 392.076 536.164 394.15 537.969 396.134 530.761 391.269 523.523 385.885 516.305 380.003 514.909 379.894 513.514 379.774 512.088 379.655 510.961 379.565 509.815 379.455 508.649 379.355 508.389 379.326 508.12 379.316 507.861 379.286 496.237 378.209 484.582 376.654 473.157 374.71 470.695 374.291 468.233 373.802 465.77 373.364L465.431 371.809C462.46 358.679 460.347 344.443 459.141 329.548 459.3 329.728 459.45 329.927 459.609 330.117 460.357 331.004 461.085 331.881 461.852 332.758 462.749 333.855 463.657 334.902 464.564 335.979 465.521 345.34 466.837 354.402 468.522 363.055 468.522 362.976 468.532 362.906 468.532 362.806 468.582 361.779 468.641 360.733 468.731 359.696 468.771 358.838 468.851 357.991 468.911 357.144 469.12 354.542 469.399 351.92 469.738 349.248 469.868 348.171 470.017 347.094 470.177 346.008 470.207 345.788 470.226 345.539 470.276 345.33 470.336 344.891 470.396 344.463 470.456 344.024 470.516 343.655 470.595 343.276 470.645 342.907 470.685 342.519 470.755 342.12 470.815 341.731 470.924 341.103 471.024 340.465 471.154 339.827 471.313 338.83 471.493 337.813 471.672 336.796 471.762 336.487 471.802 336.168 471.851 335.849 471.802 336.158 471.742 336.477 471.672 336.796 471.393 336.487 471.124 336.158 470.835 335.849 469.897 334.782 468.98 333.706 468.043 332.619 466.468 330.765 464.893 328.91 463.328 327.026 455.93 318.094 448.732 308.652 441.893 298.962L441.874 298.962C442.073 298.763 442.262 298.573 442.472 298.384 443.558 297.307 444.695 296.241 445.871 295.184 446.509 294.576 447.187 293.978 447.885 293.369 447.955 293.3 448.045 293.22 448.104 293.15 448.962 292.402 449.819 291.645 450.696 290.917 451.564 290.189 452.451 289.441 453.338 288.714 456.2 286.371 459.17 284.068 462.271 281.825 462.58 281.596 462.909 281.366 463.218 281.137 467.983 277.727 472.958 274.418 478.072 271.337 479.887 279.103 481.941 286.82 484.174 294.277 484.842 296.52 485.539 298.743 486.267 300.966 489.418 310.826 492.967 320.396 496.815 329.489 497.951 330.127 499.098 330.755 500.254 331.363 501.171 331.881 502.099 332.37 503.006 332.868 503.235 332.998 503.494 333.127 503.744 333.247 516.255 339.917 528.896 345.669 541.219 350.364 540.959 350.454 536.752 351.85 533.612 352.568L531.947 351.89C523.692 348.5 515.318 344.632 506.954 340.365 504.87 339.308 502.806 338.232 500.723 337.125 493.515 333.267 486.277 329.09 479.209 324.713 477.743 330.635 476.517 336.607 475.57 342.519 475.141 345.13 474.773 347.742 474.463 350.295 474.324 351.481 474.174 352.647 474.065 353.814 473.945 355.02 473.825 356.246 473.726 357.443 473.726 357.503 473.726 357.542 473.716 357.602 473.626 358.789 473.526 359.975 473.467 361.151 473.407 362.059 473.357 362.976 473.327 363.873 473.287 364.441 473.267 365.019 473.247 365.578 473.207 366.435 473.187 367.283 473.177 368.12 473.157 368.688 473.138 369.246 473.157 369.825 484.991 371.858 497.044 373.444 509.097 374.56 510.194 374.65 511.28 374.75 512.347 374.839 514.251 374.999 516.155 375.158 518.01 375.278 518.339 375.318 518.688 375.338 519.027 375.358 519.954 375.418 520.861 375.477 521.778 375.537 522.336 376.395 522.935 377.222 523.523 378.049 523.902 378.588 524.281 379.116 524.659 379.645 524.889 379.944 525.118 380.273 525.347 380.582L525.367 380.582C525.896 381.329 526.434 382.057 526.982 382.795 527.77 383.832 528.557 384.859 529.345 385.865 529.833 386.513 530.352 387.151 530.87 387.79 531.1 388.079 531.329 388.368 531.558 388.637 531.917 389.076 532.266 389.514 532.615 389.933Z" fill="#FFFFFF" transform="matrix(1.00263 0 0 1 -340.416 230.096)"/><path d="M471.851 335.849C471.802 336.168 471.762 336.487 471.672 336.796 471.742 336.477 471.802 336.158 471.851 335.849Z" fill="#FFFFFF" transform="matrix(1.00263 0 0 1 -340.416 230.096)"/><path d="M471.851 335.849C471.802 336.168 471.762 336.487 471.672 336.796 471.742 336.477 471.802 336.158 471.851 335.849Z" fill="#FFFFFF" transform="matrix(1.00263 0 0 1 -340.416 230.096)"/><path d="M643.126 301.654C638.181 309.011 632.698 316.359 626.726 323.666 626.716 323.876 626.696 324.095 626.686 324.235 626.656 324.534 626.626 324.833 626.606 325.132 626.527 326.039 626.467 326.946 626.367 327.893 626.287 328.741 626.208 329.598 626.138 330.446L626.038 331.343C626.038 331.552 626.008 331.752 625.998 331.971 625.978 332.001 625.998 332.021 625.998 332.081 625.978 332.28 625.948 332.489 625.948 332.679 625.879 333.337 625.829 333.975 625.769 334.633 625.729 334.962 625.689 335.301 625.659 335.62L625.58 336.328C625.271 339.209 624.922 342.19 624.573 345.13L624.473 345.838C624.443 346.147 624.393 346.466 624.363 346.775 623.955 349.906 623.526 353.086 622.997 356.555 622.898 357.233 622.788 357.921 622.678 358.599L622.659 358.689C622.579 359.177 622.519 359.666 622.439 360.134 622.29 361.072 622.15 361.939 622.01 362.796 621.871 363.654 621.721 364.491 621.592 365.289 621.552 365.518 621.502 365.727 621.472 365.947 621.452 366.136 621.422 366.315 621.392 366.475 621.263 367.283 621.123 368.04 620.984 368.798 620.884 369.366 620.485 371.44 620.425 371.769L620.136 373.324 618.591 373.673C605.721 376.584 591.823 378.688 577.228 379.884 577.427 379.734 577.607 379.565 577.806 379.405 578.703 378.668 579.591 377.92 580.488 377.162 581.565 376.245 582.631 375.338 583.708 374.431 592.75 373.493 601.484 372.217 609.828 370.582 609.728 370.582 609.609 370.572 609.499 370.562 609.12 370.542 608.741 370.523 608.362 370.493 608.193 370.473 608.043 370.473 607.864 370.463 607.854 370.453 607.824 370.463 607.814 370.453 607.445 370.453 607.066 370.423 606.708 370.393 606.159 370.363 605.611 370.313 605.043 370.273 604.873 370.263 604.704 370.253 604.534 370.243 604.425 370.233 604.325 370.233 604.215 370.204 602.879 370.104 601.543 369.984 600.207 369.845 599.938 369.815 599.679 369.785 599.4 369.745 599.141 369.735 598.862 369.705 598.602 369.655 598.004 369.605 597.396 369.526 596.788 369.456 596.09 369.386 595.412 369.296 594.734 369.197 593.398 369.037 592.042 368.828 590.687 368.618 590.667 368.618 590.627 368.618 590.607 368.608 590.607 368.608 590.577 368.598 590.517 368.589 590.507 368.589 590.467 368.569 590.338 368.579 589.969 368.519 589.58 368.459 589.201 368.399 588.902 368.359 588.593 368.309 588.304 368.269 587.945 368.22 587.586 368.17 587.237 368.1 587.128 368.09 587.038 368.08 586.928 368.05 586.041 367.901 585.134 367.741 584.227 367.572L584.207 367.572C582.891 368.748 581.565 369.894 580.209 371.051 578.404 372.606 576.58 374.151 574.726 375.687 565.594 383.283 555.963 390.641 546.044 397.639L546.044 397.639C545.755 397.36 543.352 394.838 542.614 394.03 541.797 393.163 540.999 392.276 540.202 391.369 539.404 390.471 538.607 389.564 537.829 388.617 537.041 387.69 536.264 386.753 535.466 385.786 533.123 382.914 530.84 379.914 528.587 376.803 525.038 371.908 521.639 366.754 518.438 361.47 526.364 359.606 534.24 357.512 541.847 355.22 542.973 354.891 544.09 354.552 545.226 354.193 546.343 353.844 547.449 353.475 548.566 353.116 558.007 350.085 567.139 346.706 575.842 343.047 575.842 343.047 575.842 343.027 575.862 343.037 576.032 342.718 576.201 342.399 576.391 342.08 576.401 342.05 576.44 342.01 576.46 341.96 576.779 341.372 577.108 340.804 577.417 340.236 577.537 340.006 577.657 339.807 577.796 339.568 577.926 339.348 578.036 339.119 578.145 338.89L578.474 338.291C578.634 337.982 578.803 337.683 578.963 337.384 579.072 337.215 579.162 337.035 579.252 336.856L579.521 336.367C579.521 336.367 579.651 336.128 579.671 336.098L580.089 335.291C581.226 333.157 582.362 330.954 583.479 328.751 583.479 328.751 584.087 327.554 584.087 327.535 584.665 326.378 585.243 325.212 585.822 324.045 585.931 323.816 586.041 323.597 586.141 323.357 586.46 322.709 586.779 322.041 587.078 321.393 587.636 320.217 588.204 319.051 588.743 317.874 589.042 317.236 589.321 316.588 589.61 315.95 590.148 314.774 590.667 313.607 591.195 312.421L591.514 311.693C593.668 306.778 595.661 301.853 597.456 297.068 597.546 297.337 597.635 297.586 597.715 297.856 598.034 298.843 598.333 299.82 598.632 300.797 599.001 302.033 599.37 303.269 599.759 304.495L599.679 304.695C598.493 307.626 597.257 310.587 595.96 313.557L595.931 313.627 595.612 314.365C595.083 315.551 594.555 316.758 594.007 317.944 593.538 318.931 593.099 319.908 592.641 320.895 592.182 321.872 591.733 322.859 591.255 323.846 591.056 324.275 590.836 324.703 590.647 325.132 589.899 326.677 589.151 328.193 588.394 329.718L587.786 330.924C587.447 331.582 587.098 332.26 586.759 332.938 586.709 333.008 586.679 333.097 586.619 333.187 586.25 333.935 585.871 334.673 585.483 335.39 585.104 336.128 584.705 336.846 584.336 337.564L584.137 337.953 584.107 338.012 583.768 338.65 583.628 338.91 583.539 339.069C583.539 339.069 583.509 339.139 583.489 339.139 583.349 339.398 583.22 339.657 583.08 339.907 582.95 340.186 582.791 340.475 582.641 340.744 581.694 342.469 580.707 344.263 579.671 346.098 579.521 346.347 579.381 346.596 579.242 346.855L578.933 347.364C577.826 349.308 576.66 351.341 575.434 353.365 575.414 353.415 575.384 353.445 575.364 353.495L575.244 353.684C574.476 355.01 573.669 356.316 572.871 357.632 572.413 358.39 571.944 359.128 571.486 359.905 571.844 359.985 572.193 360.075 572.532 360.154 573.24 360.324 573.948 360.503 574.666 360.643 575.314 360.812 575.962 360.952 576.61 361.082 576.7 361.101 576.799 361.131 576.889 361.161 577.298 361.251 577.706 361.341 578.115 361.43 578.365 361.5 578.634 361.55 578.903 361.6 579.72 361.779 580.548 361.949 581.365 362.108 581.485 362.138 581.605 362.148 581.724 362.178 582.332 362.288 582.94 362.427 583.539 362.537 584.954 362.796 586.34 363.055 587.736 363.305 588.095 363.345 588.454 363.424 588.822 363.474 588.892 363.484 588.952 363.484 589.022 363.494 589.331 363.544 589.64 363.594 589.959 363.634 592.262 363.993 594.555 364.332 596.818 364.601 596.987 364.611 597.167 364.641 597.336 364.671 597.486 364.68 597.635 364.7 597.785 364.7 598.194 364.77 598.592 364.82 598.991 364.85 599.4 364.9 599.789 364.94 600.197 364.99 600.327 365.009 600.457 365.019 600.586 365.039 600.726 365.039 600.855 365.049 601.005 365.069 601.394 365.119 601.783 365.159 602.181 365.189 602.291 365.209 602.401 365.219 602.52 365.229 603.009 365.269 603.497 365.319 603.976 365.358 604.963 365.428 605.96 365.508 606.927 365.578 607.346 365.608 607.734 365.638 608.143 365.647 608.711 365.687 609.26 365.717 609.818 365.747 609.858 365.747 609.868 365.757 609.908 365.747 610.067 365.757 610.227 365.787 610.376 365.787 610.815 365.807 611.244 365.827 611.672 365.827 612.24 365.847 612.819 365.877 613.397 365.897 613.646 365.897 613.866 365.917 614.125 365.917 614.723 365.937 615.301 365.937 615.879 365.947 616.109 365.957 616.348 365.957 616.597 365.947 616.617 365.857 616.637 365.767 616.637 365.667 616.836 364.511 617.046 363.295 617.245 362.009 617.365 361.391 617.445 360.763 617.554 360.115 617.664 359.417 617.793 358.689 617.903 357.941L617.923 357.851C618.023 357.174 618.122 356.496 618.222 355.838 618.751 352.408 619.199 349.248 619.588 346.157 619.638 345.848 619.658 345.559 619.698 345.27L619.787 344.532C620.146 341.621 620.495 338.69 620.794 335.819L620.834 335.48 620.954 334.304 620.974 334.154C621.044 333.526 621.083 332.898 621.143 332.26 621.173 331.811 621.213 331.353 621.273 330.854 621.273 330.854 621.323 330.117 621.333 330.107L621.333 330.007C621.402 329.409 621.452 328.831 621.512 328.252 621.532 327.943 621.552 327.664 621.582 327.365 621.642 326.847 621.682 326.318 621.721 325.79 621.751 325.431 621.791 325.092 621.821 324.753 621.851 324.145 621.901 323.547 621.951 322.959L621.981 322.6C622.001 322.161 622.04 321.732 622.06 321.314 622.14 320.466 622.18 319.649 622.23 318.851 622.25 318.572 622.27 318.303 622.29 318.004 622.449 317.914 622.609 317.804 622.748 317.705L622.968 317.545C623.596 317.097 624.224 316.678 624.822 316.239 625.36 315.88 625.889 315.511 626.407 315.143 626.716 314.913 627.045 314.684 627.344 314.455L627.344 314.435C628.76 313.418 630.165 312.381 631.511 311.334 632.189 310.816 632.847 310.297 633.505 309.789 635.23 308.433 636.895 307.067 638.54 305.682 639.397 304.964 640.264 304.226 641.092 303.478 641.79 302.89 642.468 302.272 643.146 301.654Z" fill="#FFFFFF" transform="matrix(1.00263 0 0 1 -340.416 230.096)"/><path d="M380.801 290.598C378.468 288.405 375.477 287.966 372.387 288.265 372.327 288.265 372.267 288.275 372.197 288.285 366.116 288.913 360.184 291.126 354.562 293.419 348.59 295.842 342.588 298.195 336.557 300.458 324.783 304.874 312.949 309.181 300.747 312.232 299.451 312.56 298.135 312.84 296.829 313.169 296.46 313.248 296.091 313.318 295.722 313.398 301.494 299.949 299.162 278.096 297.806 271.596 296.211 264.01 291.685 271.596 291.685 271.596 291.685 271.596 267.648 307.656 264.937 312.531 263.312 315.422 262.783 317.067 262.614 317.934 236.604 320.067 218.848 318.094 210.613 309.769 203.984 303.07 201.791 292.522 201.791 282.134L201.791 222.985C201.791 221.211 200.465 219.606 198.69 219.536 196.836 219.456 195.3 220.942 195.3 222.776L195.3 291.306C195.3 296.719 195.679 303.458 196.856 308.413 200.883 325.331 214.95 334.383 234.859 335.919 243.662 336.597 252.485 336.557 261.388 336.527 265.595 377.421 292.203 379.874 298.982 379.834 299.919 379.814 300.797 379.306 301.225 378.448 303.1 374.67 306.25 367.203 307.087 365.189 307.227 364.86 307.317 364.491 307.317 364.132 307.536 347.344 299.122 338.102 295.433 334.862 294.406 333.955 293.14 332.778 293.14 332.778 293.19 332.768 293.24 332.758 293.29 332.739 316.09 327.784 336.268 318.253 347.214 314.943 344.712 334.802 358.828 336.936 358.828 336.936 358.828 336.936 379.326 340.784 384.101 318.542 385.955 309.929 385.726 303.249 384.759 298.304 384.201 295.463 382.964 292.612 380.831 290.608ZM267.25 316.837C269.144 312.311 281.695 294.865 287.208 285.324 287.398 284.995 287.896 285.085 287.956 285.464 290.508 301.106 292.921 317.146 267.638 317.396 267.349 317.396 267.13 317.107 267.24 316.837ZM297.925 361.73C297.945 361.789 297.965 361.849 297.985 361.899 298.095 362.268 298.225 362.766 297.397 362.557 297.337 362.537 297.277 362.527 297.218 362.517 272.872 357.273 266.382 341.103 265.326 337.913 265.306 337.863 265.286 337.813 265.276 337.763 265.246 337.604 265.206 337.344 265.635 337.394 265.684 337.394 265.724 337.404 265.774 337.414 288.913 340.226 296.39 357.363 297.925 361.73ZM352.308 312.989C352.318 312.77 352.468 312.57 352.667 312.491L374.112 303.847C375.447 303.448 377.082 303.758 376.983 305.731 376.006 325.202 351.062 331.871 352.318 312.989Z" fill="#FFFFFF" transform="matrix(1.00263 0 0 1 -340.416 230.096)"/><path d="M384.799 213.674 304.017 249.883C302.96 250.361 302.272 251.408 302.272 252.575L302.272 255.396C302.272 255.735 302.621 255.964 302.94 255.825L383.722 219.616C384.779 219.137 385.467 218.09 385.467 216.924L385.467 214.103C385.467 213.764 385.118 213.534 384.799 213.674Z" fill="#FFFFFF" transform="matrix(1.00263 0 0 1 -340.416 230.096)"/></g></svg>