<svg width="522" height="259" xmlns="http://www.w3.org/2000/svg" xmlns:xlink="http://www.w3.org/1999/xlink" overflow="hidden"><defs><clipPath id="clip0"><rect x="-213" y="165" width="522" height="259"/></clipPath></defs><g clip-path="url(#clip0)" transform="translate(213 -165)"><path d="M605.417 302.099 605.417 302.119C605.417 302.119 605.407 302.089 605.407 302.089L605.417 302.089Z" fill="#08554E" transform="matrix(1 0 0 1.00124 -340.416 -0.543382)"/><path d="M645.72 294.982C645.4 295.292 645.08 295.612 644.73 295.921 643.9 296.711 643.061 297.521 642.201 298.29 641.312 299.12 640.392 299.93 639.472 300.749 638.753 301.369 638.023 301.999 637.283 302.619 633.485 305.837 629.447 308.976 625.198 312.035 624.099 312.834 622.969 313.614 621.85 314.403L621.61 314.563C621.23 314.813 620.87 315.073 620.491 315.333 619.521 315.983 618.551 316.642 617.562 317.292 616.782 317.812 615.992 318.302 615.183 318.812L614.803 319.061C614.753 319.101 614.703 319.141 614.623 319.161 614.353 319.351 614.093 319.511 613.833 319.681 613.544 319.871 613.244 320.061 612.934 320.251L612.934 320.251C612.734 320.371 612.554 320.491 612.364 320.611 612.184 320.731 612.004 320.831 611.844 320.941 611.764 320.991 611.664 321.051 611.584 321.091 611.325 321.26 611.055 321.42 610.775 321.58L610.775 321.6 610.755 321.6C610.725 321.46 610.705 321.34 610.675 321.22 610.405 320.121 610.115 318.971 609.825 317.832L609.635 317.132C609.195 315.453 608.756 313.764 608.296 312.094L608.296 312.074C607.836 310.405 607.366 308.746 606.896 307.087L606.896 307.087C606.896 307.087 606.886 307.077 606.886 307.077L606.886 307.077C606.397 305.407 605.917 303.768 605.427 302.119L605.427 302.099 605.417 302.099C604.917 300.449 604.397 298.81 603.898 297.181 603.658 296.441 603.428 295.722 603.188 294.972 602.958 294.252 602.718 293.513 602.458 292.763 602.258 292.153 602.059 291.543 601.839 290.934 601.569 290.114 601.289 289.324 601.019 288.525 600.309 286.476 599.59 284.446 598.84 282.417 596.431 275.83 593.842 269.443 591.113 263.276 589.934 262.626 588.764 261.996 587.595 261.376 586.665 260.877 585.746 260.387 584.806 259.907 584.566 259.787 584.316 259.637 584.066 259.517 575.2 254.939 566.254 250.781 557.488 247.183 553.78 245.663 550.061 244.214 546.403 242.865 546.653 242.795 546.913 242.725 547.182 242.645 548.182 242.335 549.201 242.025 550.221 241.745 551.51 241.355 552.82 240.975 554.119 240.616 555.849 241.285 557.598 241.985 559.327 242.695 566.394 245.593 573.561 248.852 580.728 252.41 582.837 253.45 584.946 254.519 587.055 255.619 594.212 259.337 601.389 263.376 608.446 267.654 609.655 262.686 610.695 257.768 611.534 252.92 611.614 252.53 611.674 252.141 611.734 251.761 611.934 250.571 612.124 249.382 612.304 248.202 612.424 247.473 612.524 246.753 612.624 246.033 612.714 245.393 612.794 244.764 612.884 244.134 613.034 242.855 613.194 241.605 613.324 240.356 613.444 239.386 613.524 238.426 613.624 237.477 613.683 236.697 613.763 235.938 613.823 235.178 613.863 234.708 613.893 234.208 613.923 233.738 614.003 232.789 614.063 231.839 614.113 230.91 614.193 229.51 614.253 228.131 614.293 226.762 614.313 226.012 614.343 225.262 614.353 224.522L614.353 224.093C602.139 222.104 589.674 220.584 577.239 219.595 573.241 219.275 569.573 219.025 566.164 218.825L566.144 218.825C565.534 217.985 564.925 217.136 564.325 216.316 563.925 215.786 563.535 215.257 563.125 214.717 562.906 214.407 562.666 214.097 562.436 213.807 561.856 213.017 561.276 212.258 560.667 211.498 560.017 210.669 559.357 209.829 558.697 209.019 558.128 208.31 557.558 207.61 556.978 206.92 556.228 206.011 555.469 205.111 554.699 204.211 554.059 203.462 553.38 202.712 552.71 201.972 552.42 201.642 552.15 201.313 551.85 200.993 557.868 205.051 563.915 209.479 569.912 214.207 571.282 214.297 572.701 214.397 574.161 214.507 575.3 214.577 576.46 214.667 577.649 214.767 577.889 214.787 578.129 214.807 578.379 214.827 590.424 215.816 602.528 217.266 614.373 219.205 614.843 219.285 615.323 219.365 615.793 219.445 616.252 219.515 616.732 219.595 617.202 219.665L619.231 220.014C619.601 220.064 619.981 220.124 620.341 220.194L621.93 220.474 622.29 222.064C625.258 235.458 627.368 249.861 628.507 264.905 628.337 264.695 628.177 264.515 628.007 264.315 627.288 263.446 626.558 262.606 625.818 261.756 624.929 260.687 624.019 259.627 623.119 258.598 622.16 248.722 620.77 239.156 619.011 230.05 618.981 230.66 618.951 231.25 618.891 231.849 618.871 232.569 618.831 233.249 618.771 233.968 618.691 234.968 618.621 235.998 618.511 237.017 618.391 238.396 618.262 239.806 618.102 241.205 617.942 242.735 617.732 244.294 617.522 245.843 617.512 245.953 617.512 246.073 617.482 246.183 617.262 247.802 617.032 249.422 616.752 251.051 616.742 251.161 616.732 251.281 616.702 251.401 616.642 251.781 616.572 252.19 616.512 252.57 616.412 253.19 616.302 253.81 616.182 254.43 616.013 255.429 615.833 256.429 615.633 257.438 615.573 257.728 615.513 258.008 615.463 258.328 615.523 258.038 615.583 257.748 615.643 257.458 616.542 258.458 617.442 259.447 618.321 260.477 620.321 262.736 622.33 265.065 624.309 267.414 624.539 267.684 624.759 267.954 624.979 268.224 625.888 269.293 626.768 270.363 627.657 271.442 628.557 272.532 629.437 273.621 630.326 274.721 632.085 276.91 633.845 279.139 635.564 281.358 636.434 282.477 637.293 283.597 638.163 284.726 639.022 285.846 639.862 286.995 640.712 288.115 642.411 290.384 644.07 292.663 645.72 294.972L645.72 294.972Z" fill="#08554E" transform="matrix(1 0 0 1.00124 -340.416 -0.543382)"/><path d="M605.407 302.089 605.417 302.089 605.417 302.119C605.417 302.119 605.407 302.089 605.407 302.089Z" fill="#08554E" transform="matrix(1 0 0 1.00124 -340.416 -0.543382)"/><path d="M615.633 257.458C615.573 257.748 615.513 258.038 615.453 258.328 615.503 258.008 615.563 257.728 615.623 257.438L615.623 257.458Z" fill="#08554E" transform="matrix(1 0 0 1.00124 -340.416 -0.543382)"/><path d="M615.633 257.458C615.573 257.748 615.513 258.038 615.453 258.328 615.503 258.008 615.563 257.728 615.623 257.438L615.623 257.458Z" fill="#08554E" transform="matrix(1 0 0 1.00124 -340.416 -0.543382)"/><path d="M566.184 218.895C566.184 218.895 566.144 218.845 566.134 218.835L566.134 218.835C566.134 218.835 566.154 218.825 566.154 218.825 566.154 218.855 566.174 218.875 566.184 218.895Z" fill="#08554E" transform="matrix(1 0 0 1.00124 -340.416 -0.543382)"/><path d="M568.993 231.779C561.136 233.629 553.32 235.728 545.753 238.017 544.594 238.366 543.454 238.716 542.294 239.076 541.155 239.426 540.005 239.796 538.876 240.176 529.25 243.284 519.944 246.763 511.068 250.551 510.418 251.711 509.779 252.85 509.159 254 508.649 254.919 508.149 255.849 507.65 256.779 507.52 257.008 507.4 257.258 507.28 257.498 500.683 269.853 494.985 282.267 490.327 294.422 490.257 294.172 490.167 293.902 490.097 293.662 489.787 292.653 489.477 291.633 489.218 290.624 488.828 289.374 488.468 288.115 488.128 286.865 491.637 278.219 495.655 269.463 500.123 260.727 501.192 258.648 502.282 256.559 503.391 254.479 507.12 247.523 511.138 240.536 515.386 233.669 509.279 232.299 503.121 231.17 497.024 230.35 494.695 230.03 492.406 229.76 490.117 229.54 488.978 229.42 487.838 229.33 486.709 229.23 485.979 229.17 485.239 229.12 484.51 229.071 483 228.961 481.491 228.891 479.992 228.821 478.982 228.771 477.982 228.731 476.993 228.721 476.103 228.691 475.214 228.671 474.334 228.681 473.674 228.661 473.015 228.661 472.355 228.671 471.635 228.671 470.925 228.671 470.216 228.691L470.216 228.691C468.297 240.046 466.787 251.641 465.748 263.256 465.648 264.365 465.558 265.435 465.468 266.514 465.198 269.703 464.968 272.762 464.788 275.73 463.919 276.32 463.079 276.91 462.259 277.509 461.719 277.889 461.19 278.259 460.66 278.649 460.35 278.869 460.02 279.109 459.73 279.339 459.73 279.339 455.452 282.537 453.423 284.157 452.264 285.086 451.114 286.026 449.985 286.965 448.505 288.195 447.086 289.424 445.696 290.664 445.307 290.994 444.937 291.333 444.567 291.663 449.315 284.616 454.573 277.549 460.28 270.493 460.4 269.113 460.51 267.714 460.63 266.284L460.63 266.264C460.73 265.135 460.83 263.985 460.94 262.816 460.97 262.556 460.99 262.316 461 262.046 462.029 250.901 463.459 239.746 465.308 228.831 465.458 227.861 465.628 226.871 465.788 225.912 465.858 225.552 465.918 225.202 465.988 224.842 466.048 224.552 466.108 224.263 466.158 223.973L466.158 223.953 466.437 222.433 467.957 222.044C480.511 218.985 494.065 216.666 508.229 215.237 508.049 215.396 507.849 215.546 507.67 215.706 506.76 216.486 505.85 217.246 504.961 218.015 503.881 218.955 502.792 219.895 501.722 220.834 494.775 221.694 488.008 222.763 481.481 224.043 481.521 224.033 481.581 224.043 481.631 224.043 482.49 224.083 483.36 224.153 484.24 224.203 486.409 224.343 488.598 224.522 490.797 224.752 492.206 224.892 497.324 225.512 497.694 225.562 498.354 225.662 499.023 225.742 499.693 225.862 500.733 225.992 501.762 226.142 502.802 226.322 502.952 226.202 503.082 226.082 503.221 225.962 503.501 225.722 503.781 225.472 504.071 225.222 506.23 223.293 508.489 221.354 510.788 219.415 520.374 211.308 530.39 203.562 540.585 196.315 541.515 197.224 542.464 198.134 543.384 199.084 543.984 199.673 544.553 200.283 545.133 200.873 547.682 203.532 550.201 206.34 552.65 209.259 553.35 210.119 554.069 210.978 554.769 211.848 556.278 213.717 557.788 215.646 559.267 217.615 562.636 222.104 565.904 226.861 569.003 231.779Z" fill="#08554E" transform="matrix(1 0 0 1.00124 -340.416 -0.543382)"/><path d="M534.018 390.96C535.787 393.109 537.577 395.188 539.386 397.178 532.159 392.3 524.902 386.902 517.665 381.005 516.266 380.895 514.866 380.775 513.437 380.655 512.308 380.565 511.158 380.455 509.988 380.355 509.729 380.325 509.459 380.315 509.199 380.285 497.544 379.205 485.859 377.646 474.404 375.697 471.935 375.277 469.466 374.787 466.997 374.347L466.657 372.788C463.679 359.624 461.56 345.35 460.35 330.417 460.51 330.596 460.66 330.796 460.82 330.986 461.57 331.876 462.299 332.755 463.069 333.635 463.969 334.735 464.878 335.784 465.788 336.864 466.747 346.25 468.067 355.336 469.756 364.012 469.756 363.932 469.766 363.862 469.766 363.762 469.816 362.732 469.876 361.683 469.966 360.643 470.006 359.784 470.086 358.934 470.146 358.084 470.356 355.476 470.636 352.847 470.975 350.168 471.105 349.088 471.255 348.009 471.415 346.919 471.445 346.699 471.465 346.45 471.515 346.24 471.575 345.8 471.635 345.37 471.695 344.93 471.755 344.56 471.835 344.181 471.885 343.811 471.925 343.421 471.995 343.021 472.055 342.631 472.165 342.001 472.265 341.362 472.395 340.722 472.555 339.722 472.735 338.703 472.915 337.683 473.005 337.373 473.045 337.054 473.095 336.734 473.045 337.044 472.985 337.363 472.915 337.683 472.635 337.373 472.365 337.044 472.075 336.734 471.135 335.664 470.216 334.585 469.276 333.495 467.697 331.636 466.118 329.777 464.548 327.888 457.131 318.931 449.915 309.466 443.058 299.75L443.038 299.75C443.237 299.55 443.427 299.36 443.637 299.17 444.727 298.091 445.866 297.021 447.046 295.961 447.686 295.352 448.365 294.752 449.065 294.142 449.135 294.072 449.225 293.992 449.285 293.922 450.145 293.173 451.004 292.413 451.884 291.683 452.753 290.954 453.643 290.204 454.533 289.474 457.401 287.125 460.38 284.816 463.489 282.567 463.799 282.337 464.128 282.107 464.438 281.878 469.216 278.459 474.204 275.141 479.332 272.052 481.151 279.838 483.21 287.575 485.449 295.052 486.119 297.301 486.819 299.53 487.548 301.759 490.707 311.645 494.265 321.24 498.124 330.357 499.263 330.996 500.413 331.626 501.572 332.236 502.492 332.755 503.421 333.245 504.331 333.745 504.561 333.875 504.821 334.005 505.071 334.125 517.615 340.812 530.29 346.579 542.644 351.287 542.384 351.377 538.166 352.777 535.018 353.496L533.348 352.817C525.072 349.418 516.676 345.54 508.289 341.262 506.2 340.202 504.131 339.123 502.042 338.013 494.815 334.145 487.558 329.957 480.471 325.569 479.002 331.506 477.773 337.493 476.823 343.421 476.393 346.04 476.023 348.659 475.713 351.217 475.573 352.407 475.424 353.576 475.314 354.746 475.194 355.955 475.074 357.185 474.974 358.384 474.974 358.444 474.974 358.484 474.964 358.544 474.874 359.734 474.774 360.923 474.714 362.103 474.654 363.012 474.604 363.932 474.574 364.832 474.534 365.401 474.514 365.981 474.494 366.541 474.454 367.4 474.434 368.25 474.424 369.09 474.404 369.659 474.384 370.219 474.404 370.799 486.269 372.838 498.354 374.427 510.438 375.547 511.538 375.637 512.627 375.737 513.697 375.827 515.606 375.987 517.515 376.147 519.374 376.267 519.704 376.307 520.054 376.327 520.394 376.347 521.324 376.407 522.233 376.467 523.153 376.526 523.713 377.386 524.312 378.216 524.902 379.045 525.282 379.585 525.662 380.115 526.042 380.645 526.271 380.945 526.501 381.274 526.731 381.584L526.751 381.584C527.281 382.334 527.821 383.064 528.37 383.803 529.16 384.843 529.95 385.872 530.74 386.882 531.229 387.532 531.749 388.171 532.269 388.811 532.499 389.101 532.729 389.391 532.959 389.661 533.318 390.101 533.668 390.54 534.018 390.96Z" fill="#08554E" transform="matrix(1 0 0 1.00124 -340.416 -0.543382)"/><path d="M473.095 336.734C473.045 337.054 473.005 337.373 472.915 337.683 472.985 337.363 473.045 337.044 473.095 336.734Z" fill="#08554E" transform="matrix(1 0 0 1.00124 -340.416 -0.543382)"/><path d="M473.095 336.734C473.045 337.054 473.005 337.373 472.915 337.683 472.985 337.363 473.045 337.044 473.095 336.734Z" fill="#08554E" transform="matrix(1 0 0 1.00124 -340.416 -0.543382)"/><path d="M644.82 302.449C639.862 309.825 634.365 317.192 628.377 324.519 628.367 324.729 628.347 324.949 628.337 325.089 628.307 325.389 628.277 325.689 628.257 325.988 628.177 326.898 628.117 327.808 628.017 328.757 627.937 329.607 627.857 330.466 627.787 331.316L627.687 332.216C627.687 332.426 627.657 332.626 627.647 332.845 627.627 332.875 627.647 332.895 627.647 332.955 627.627 333.155 627.597 333.365 627.597 333.555 627.527 334.215 627.477 334.855 627.418 335.514 627.378 335.844 627.338 336.184 627.308 336.504L627.228 337.214C626.918 340.102 626.568 343.091 626.218 346.04L626.118 346.749C626.088 347.059 626.038 347.379 626.008 347.689 625.598 350.828 625.169 354.016 624.639 357.495 624.539 358.174 624.429 358.864 624.319 359.544L624.299 359.634C624.219 360.124 624.159 360.613 624.079 361.083 623.929 362.023 623.789 362.892 623.649 363.752 623.509 364.612 623.359 365.451 623.229 366.251 623.189 366.481 623.139 366.691 623.109 366.911 623.089 367.101 623.059 367.28 623.029 367.44 622.899 368.25 622.76 369.01 622.62 369.769 622.52 370.339 622.12 372.418 622.06 372.748L621.77 374.307 620.221 374.657C607.316 377.576 593.382 379.685 578.749 380.885 578.949 380.735 579.128 380.565 579.328 380.405 580.228 379.665 581.118 378.915 582.017 378.156 583.097 377.236 584.166 376.327 585.246 375.417 594.312 374.477 603.068 373.198 611.434 371.559 611.334 371.559 611.215 371.549 611.105 371.539 610.725 371.519 610.345 371.499 609.965 371.469 609.795 371.449 609.645 371.449 609.465 371.439 609.455 371.429 609.425 371.439 609.415 371.429 609.045 371.429 608.666 371.399 608.306 371.369 607.756 371.339 607.206 371.289 606.637 371.249 606.467 371.239 606.297 371.229 606.127 371.219 606.017 371.209 605.917 371.209 605.807 371.179 604.467 371.079 603.128 370.959 601.789 370.819 601.519 370.789 601.259 370.759 600.979 370.719 600.719 370.709 600.439 370.679 600.179 370.629 599.58 370.579 598.97 370.499 598.36 370.429 597.66 370.359 596.981 370.269 596.301 370.169 594.962 370.009 593.602 369.799 592.243 369.589 592.223 369.589 592.183 369.589 592.163 369.579 592.163 369.579 592.133 369.57 592.073 369.56 592.063 369.56 592.023 369.54 591.893 369.549 591.523 369.49 591.133 369.43 590.753 369.37 590.454 369.33 590.144 369.28 589.854 369.24 589.494 369.19 589.134 369.14 588.784 369.07 588.674 369.06 588.584 369.05 588.474 369.02 587.585 368.87 586.675 368.71 585.766 368.54L585.746 368.54C584.426 369.719 583.097 370.869 581.737 372.028 579.928 373.588 578.099 375.137 576.24 376.676 567.084 384.293 557.428 391.67 547.482 398.687L547.482 398.687C547.192 398.407 544.783 395.878 544.044 395.068 543.224 394.199 542.424 393.309 541.625 392.4 540.825 391.5 540.026 390.59 539.246 389.641 538.456 388.711 537.676 387.772 536.877 386.802 534.528 383.923 532.239 380.915 529.98 377.796 526.421 372.888 523.013 367.72 519.804 362.423 527.751 360.553 535.647 358.454 543.274 356.155 544.404 355.825 545.523 355.486 546.663 355.126 547.782 354.776 548.892 354.406 550.011 354.046 559.477 351.008 568.633 347.619 577.359 343.951 577.359 343.951 577.359 343.931 577.379 343.941 577.549 343.621 577.719 343.301 577.909 342.981 577.919 342.951 577.959 342.911 577.979 342.861 578.299 342.271 578.629 341.702 578.939 341.132 579.059 340.902 579.178 340.702 579.318 340.462 579.448 340.242 579.558 340.012 579.668 339.782L579.998 339.183C580.158 338.873 580.328 338.573 580.488 338.273 580.598 338.103 580.688 337.923 580.778 337.743L581.048 337.254C581.048 337.254 581.178 337.014 581.198 336.984L581.617 336.174C582.757 334.035 583.896 331.826 585.016 329.617 585.016 329.617 585.626 328.417 585.626 328.397 586.205 327.238 586.785 326.068 587.365 324.899 587.475 324.669 587.585 324.449 587.685 324.209 588.005 323.559 588.325 322.89 588.624 322.24 589.184 321.061 589.754 319.891 590.294 318.712 590.594 318.072 590.873 317.422 591.163 316.782 591.703 315.603 592.223 314.433 592.753 313.244L593.072 312.514C595.232 307.586 597.231 302.649 599.03 297.851 599.12 298.121 599.21 298.37 599.29 298.64 599.61 299.63 599.909 300.609 600.209 301.589 600.579 302.828 600.949 304.068 601.339 305.297L601.259 305.497C600.069 308.436 598.83 311.405 597.53 314.383L597.501 314.453 597.181 315.193C596.651 316.383 596.121 317.592 595.571 318.782 595.102 319.771 594.662 320.751 594.202 321.74 593.742 322.72 593.292 323.709 592.813 324.699 592.613 325.129 592.393 325.559 592.203 325.988 591.453 327.538 590.703 329.057 589.944 330.586L589.334 331.796C588.994 332.456 588.644 333.135 588.305 333.815 588.255 333.885 588.225 333.975 588.165 334.065 587.795 334.815 587.415 335.554 587.025 336.274 586.645 337.014 586.245 337.733 585.876 338.453L585.676 338.843 585.646 338.903 585.306 339.543 585.166 339.802 585.076 339.962C585.076 339.962 585.046 340.032 585.026 340.032 584.886 340.292 584.756 340.552 584.616 340.802 584.486 341.082 584.326 341.372 584.176 341.642 583.227 343.371 582.237 345.17 581.198 347.009 581.048 347.259 580.908 347.509 580.768 347.769L580.458 348.279C579.348 350.228 578.179 352.267 576.949 354.296 576.929 354.346 576.899 354.376 576.879 354.426L576.76 354.616C575.99 355.945 575.18 357.255 574.381 358.574 573.921 359.334 573.451 360.074 572.991 360.853 573.351 360.933 573.701 361.023 574.041 361.103 574.75 361.273 575.46 361.453 576.18 361.593 576.83 361.763 577.479 361.903 578.129 362.033 578.219 362.053 578.319 362.083 578.409 362.113 578.819 362.203 579.228 362.293 579.638 362.383 579.888 362.453 580.158 362.503 580.428 362.553 581.248 362.732 582.077 362.902 582.897 363.062 583.017 363.092 583.137 363.102 583.257 363.132 583.866 363.242 584.476 363.382 585.076 363.492 586.495 363.752 587.885 364.012 589.284 364.262 589.644 364.302 590.004 364.382 590.374 364.432 590.444 364.442 590.504 364.442 590.574 364.452 590.883 364.502 591.193 364.552 591.513 364.592 593.822 364.951 596.121 365.291 598.39 365.561 598.56 365.571 598.74 365.601 598.91 365.631 599.06 365.641 599.21 365.661 599.36 365.661 599.77 365.731 600.169 365.781 600.569 365.811 600.979 365.861 601.369 365.901 601.779 365.951 601.909 365.971 602.039 365.981 602.168 366.001 602.308 366.001 602.438 366.011 602.588 366.031 602.978 366.081 603.368 366.121 603.768 366.151 603.878 366.171 603.988 366.181 604.108 366.191 604.597 366.231 605.087 366.281 605.567 366.321 606.557 366.391 607.556 366.471 608.526 366.541 608.946 366.571 609.335 366.601 609.745 366.611 610.315 366.651 610.865 366.681 611.424 366.711 611.464 366.711 611.474 366.721 611.514 366.711 611.674 366.721 611.834 366.751 611.984 366.751 612.424 366.771 612.854 366.791 613.284 366.791 613.853 366.811 614.433 366.841 615.013 366.861 615.263 366.861 615.483 366.881 615.743 366.881 616.342 366.901 616.922 366.901 617.502 366.911 617.732 366.921 617.972 366.921 618.221 366.911 618.242 366.821 618.262 366.731 618.262 366.631 618.461 365.471 618.671 364.252 618.871 362.962 618.991 362.343 619.071 361.713 619.181 361.063 619.291 360.363 619.421 359.634 619.531 358.884L619.551 358.794C619.651 358.114 619.751 357.435 619.851 356.775 620.381 353.337 620.83 350.168 621.22 347.069 621.27 346.759 621.29 346.47 621.33 346.18L621.42 345.44C621.78 342.521 622.13 339.583 622.43 336.704L622.47 336.364 622.59 335.184 622.61 335.034C622.68 334.405 622.72 333.775 622.78 333.135 622.81 332.686 622.849 332.226 622.909 331.726 622.909 331.726 622.959 330.986 622.969 330.976L622.969 330.876C623.039 330.277 623.089 329.697 623.149 329.117 623.169 328.807 623.189 328.527 623.219 328.227 623.279 327.708 623.319 327.178 623.359 326.648 623.389 326.288 623.429 325.948 623.459 325.609 623.489 324.999 623.539 324.399 623.589 323.809L623.619 323.45C623.639 323.01 623.679 322.58 623.699 322.16 623.779 321.31 623.819 320.491 623.869 319.691 623.889 319.411 623.909 319.141 623.929 318.842 624.089 318.752 624.249 318.642 624.389 318.542L624.609 318.382C625.238 317.932 625.868 317.512 626.468 317.072 627.008 316.712 627.537 316.343 628.057 315.973 628.367 315.743 628.697 315.513 628.997 315.283L628.997 315.263C630.416 314.244 631.826 313.204 633.175 312.154 633.855 311.635 634.514 311.115 635.174 310.605 636.903 309.246 638.573 307.876 640.222 306.487 641.082 305.767 641.951 305.028 642.781 304.278 643.481 303.688 644.16 303.068 644.84 302.449Z" fill="#08554E" transform="matrix(1 0 0 1.00124 -340.416 -0.543382)"/><path d="M381.804 291.363C379.465 289.164 376.467 288.725 373.368 289.024 373.308 289.024 373.248 289.034 373.178 289.044 367.081 289.674 361.133 291.893 355.496 294.192 349.508 296.621 343.491 298.98 337.443 301.249 325.639 305.677 313.774 309.995 301.539 313.054 300.24 313.384 298.92 313.664 297.611 313.994 297.241 314.074 296.871 314.144 296.501 314.224 302.289 300.739 299.95 278.829 298.59 272.312 296.991 264.705 292.453 272.312 292.453 272.312 292.453 272.312 268.353 308.466 265.635 313.354 264.005 316.253 263.476 317.902 263.306 318.772 237.227 320.911 219.425 318.931 211.168 310.585 204.521 303.868 202.322 293.293 202.322 282.877L202.322 223.573C202.322 221.794 200.993 220.184 199.213 220.114 197.354 220.034 195.815 221.524 195.815 223.363L195.815 292.073C195.815 297.501 196.195 304.258 197.374 309.226 201.413 326.188 215.516 335.264 235.478 336.804 244.304 337.483 253.15 337.443 262.076 337.413 266.294 378.416 292.973 380.875 299.77 380.835 300.709 380.815 301.589 380.305 302.019 379.445 303.898 375.657 307.057 368.17 307.896 366.151 308.036 365.821 308.126 365.451 308.126 365.091 308.346 348.259 299.91 338.993 296.211 335.744 295.182 334.835 293.912 333.655 293.912 333.655 293.962 333.645 294.012 333.635 294.062 333.615 316.922 328.647 337.154 319.091 348.129 315.773 345.62 335.684 359.774 337.823 359.774 337.823 359.774 337.823 380.325 341.682 385.113 319.381 386.972 310.745 386.742 304.048 385.772 299.09 385.213 296.241 383.973 293.383 381.834 291.373ZM267.954 317.672C269.853 313.134 282.437 295.642 287.965 286.076 288.155 285.746 288.655 285.836 288.715 286.216 291.273 301.899 293.692 317.982 268.343 318.232 268.054 318.232 267.834 317.942 267.944 317.672ZM298.71 362.682C298.73 362.742 298.75 362.802 298.77 362.852 298.88 363.222 299.01 363.722 298.181 363.512 298.121 363.492 298.061 363.482 298.001 363.472 273.591 358.214 267.084 342.001 266.024 338.803 266.004 338.753 265.984 338.703 265.974 338.653 265.944 338.493 265.905 338.233 266.334 338.283 266.384 338.283 266.424 338.293 266.474 338.303 289.674 341.122 297.171 358.304 298.71 362.682ZM353.237 313.814C353.247 313.594 353.397 313.394 353.596 313.314L375.097 304.648C376.437 304.248 378.076 304.558 377.976 306.537 376.996 326.058 351.987 332.746 353.247 313.814Z" fill="#08554E" transform="matrix(1 0 0 1.00124 -340.416 -0.543382)"/><path d="M385.812 214.237 304.818 250.541C303.758 251.021 303.068 252.071 303.068 253.24L303.068 256.069C303.068 256.409 303.418 256.639 303.738 256.499L384.733 220.194C385.792 219.715 386.482 218.665 386.482 217.496L386.482 214.667C386.482 214.327 386.132 214.097 385.812 214.237Z" fill="#08554E" transform="matrix(1 0 0 1.00124 -340.416 -0.543382)"/></g></svg>